<svg width="433" height="408" viewBox="0 0 433 408" fill="none" xmlns="http://www.w3.org/2000/svg" xmlns:xlink="http://www.w3.org/1999/xlink">
    <image id="image0" width="433" height="408" xlink:href="iamage/apartments.svg" />
    <path d="M124.729 116H46V198H167V145.178H124.729V116Z" fill="#3595F6" fill-opacity="0.75" />
    <path d="M387 209.5V203H380H370V200H365.5H331H266V253.5H312.5V268H387V209.5Z" fill="#3595F6" fill-opacity="0.75" />
    <path d="M387 151.5V144.5H380H370H366V142.5H331H315.5V150.5H297.5H266V200H312H321H360.5H370V203H387V151.5Z" fill="#3595F6" fill-opacity="0.75" />
    <path d="M124.729 198H46V274.5H120.5V254H167V227.178V198H124.729Z" fill="#3595F6" fill-opacity="0.75" />
    <path d="M216.5 296V264H187.5V274.5H167V310.5H139V375.5H173.5V394.5H216.5V350.5V333.5V324.5V296Z" fill="#3595F6" fill-opacity="0.75" />
    <path d="M266 310.5L265.5 274H246V264H217V286V310.5V394.5H259.5V376H294.5V350.5V333.5V310.5H266Z" fill="#3595F6" fill-opacity="0.75" />
    <path d="M312 253H266V311H294V375H340.5V392.5H404.5V366.5V328.5H388.5L387 297.625V268H349H312V253Z" fill="#3595F6" fill-opacity="0.75" />
    <path d="M167 254.5H120.5V275H46V328.5H28V393H92.5V376H109H139V310H167V304.178V254.5Z" fill="#3595F6" fill-opacity="0.75" />
    <path d="M183.5 67V32.5H156.5H124.729H93V16.5H28.5V80.5L45 81.5L46 115.5H124.729V145H163.5V131.5H183.5V67Z" fill="#3595F6" fill-opacity="0.75" />
    <path d="M341 34H246V133H266.5V150.5H269.5H315.5V142.5H364.5L366 144.5H367.5H369.5H387.5V80.5H404.5V16H341V34Z" fill="#3595F6" fill-opacity="0.75" />
</svg>